<svg id="Layer_1" data-name="Layer 1" xmlns="http://www.w3.org/2000/svg" xmlns:xlink="http://www.w3.org/1999/xlink" viewBox="0 0 198.43 198.43"><defs><style>.cls-1{fill:url(#linear-gradient);}</style><linearGradient id="linear-gradient" x1="99.21" y1="170.08" x2="99.21" y2="28.35" gradientUnits="userSpaceOnUse"><stop offset="0" stop-color="#4866ee"/><stop offset="0.55" stop-color="#2593f5"/><stop offset="1" stop-color="#06bcfb"/></linearGradient></defs><path class="cls-1" d="M149.32,49.1A70.87,70.87,0,1,0,84.16,168.48V158.17a60.8,60.8,0,0,1-28-15.94c-.52-.52-1-1-1.52-1.58h9.8v-3.18H51.92a61,61,0,0,1-4.7-6.66H64.48l-.21-3.18H45.42a57.81,57.81,0,0,1-3-6.65H56.25l-.59-3.18H41.28a59.14,59.14,0,0,1-1.73-6.66H60.86l-1-3.18H39a63.19,63.19,0,0,1-.59-6.65H51.08l-1.23-3.18H38.4a59.62,59.62,0,0,1,.67-8.07H53.59l-1.46-3.18H39.63a60.85,60.85,0,0,1,119.16,0H146.3l-1.47,3.18h14.53a61.28,61.28,0,0,1,.67,8.07H148.58l-1.23,3.18H160a58.26,58.26,0,0,1-.59,6.65H138.6l-1,3.18h21.3a61.32,61.32,0,0,1-1.72,6.66H142.76l-.58,3.18H156a61.44,61.44,0,0,1-3,6.65H134.16l-.21,3.18H151.2a62.26,62.26,0,0,1-4.69,6.66H134v3.18h9.79c-.49.53-1,1.06-1.51,1.58a60.65,60.65,0,0,1-38,17.61V140.66h20v-5c0-40.64,18.4-54.19,22.4-56.65a50.64,50.64,0,0,0-4.53-9c-4.16,2.45-26.21,17.44-27.82,60.6h-10V54.1l-10,10v66.48h-10C82.56,87.46,60.5,72.47,56.35,70a50,50,0,0,0-4.53,9c4,2.46,22.4,16,22.4,56.65v5h20V168h0v1.91c1.65.12,3.33.18,5,.18a70.87,70.87,0,0,0,50.11-121Z"/></svg>