<svg id="Layer_1" data-name="Layer 1" xmlns="http://www.w3.org/2000/svg" xmlns:xlink="http://www.w3.org/1999/xlink" viewBox="0 0 311.81 198.43"><defs><style>.cls-1{fill:#231f20;}.cls-2{fill:url(#linear-gradient);}</style><linearGradient id="linear-gradient" x1="156" y1="125.07" x2="156" y2="11.9" gradientUnits="userSpaceOnUse"><stop offset="0" stop-color="#4866ee"/><stop offset="0.55" stop-color="#2593f5"/><stop offset="1" stop-color="#06bcfb"/></linearGradient></defs><path class="cls-1" d="M40.45,145.08c8.53,0,14.95,6.73,14.95,16.09,0,9.59-6.42,15.86-15,15.86a12.13,12.13,0,0,1-9.8-4.32h-.1v16.38h-7.1V145.54h7.1v3.75h.13a12.43,12.43,0,0,1,9.83-4.21Zm7.73,16.13c0-6-4-9.68-8.94-9.68-5.33,0-9,4.19-9,9.68s4,9.36,9.06,9.36C44.51,170.57,48.18,166.7,48.18,161.21Z"/><path class="cls-1" d="M61,161.08c0-9.15,6.48-16,16.28-16,9.5,0,16.26,6.51,16.26,16S86.77,177,77.27,177C67.47,177,61,170.17,61,161.08Zm16.28,9.49c5,0,9-3.9,9-9.49s-3.94-9.55-9-9.55c-5.42,0-9,4.16-9,9.55s3.72,9.49,9,9.49Z"/><path class="cls-1" d="M98.34,172.5l3.6-5.34a11.7,11.7,0,0,0,8.93,3.66c2.73,0,4.34-1.24,4.34-3,0-1.61-2.08-2.38-6.14-3.78-5.09-1.74-9.46-4.07-9.46-10.15,0-5,4.59-8.77,10.92-8.77a16.72,16.72,0,0,1,11,3.87l-3.57,5.59a11.57,11.57,0,0,0-7.78-3.32c-1.4,0-3.38.77-3.38,2.67,0,1.55,2,2.6,4.93,3.78,6.57,2.61,10.73,3.78,10.73,10,0,5.21-3.69,9.4-11.57,9.4A18.6,18.6,0,0,1,98.34,172.5Z"/><path class="cls-1" d="M157.31,163.5H134.72a8.56,8.56,0,0,0,8.84,7.07,9.6,9.6,0,0,0,7.73-3.66l5,4.25c-2.63,3.38-7,5.87-13.06,5.87-9,0-15.85-6.33-15.85-16,0-9.49,6.48-15.94,15.11-15.94,9.15,0,15,6.57,15,15.6A21.27,21.27,0,0,1,157.31,163.5Zm-14.49-12a7.83,7.83,0,0,0-8,6.23h15.51c-.9-3.75-3.48-6.23-7.54-6.23Z"/><path class="cls-1" d="M165.31,145.54h7.1v31h-7.1Z"/><path class="cls-1" d="M212.28,129.75v46.78h-6.8v-4.16h-.12A12.06,12.06,0,0,1,195.28,177c-8.59,0-15-6.27-15-15.85,0-9.37,6.43-16.1,15-16.1a12.35,12.35,0,0,1,9.8,4.18h.15V129.75Zm-6.83,31.46c0-5.49-3.69-9.68-9-9.68-5,0-8.94,3.72-8.94,9.68,0,5.49,3.66,9.36,8.9,9.36C201.45,170.57,205.45,166.82,205.45,161.21Z"/><path class="cls-1" d="M219.69,161.08c0-9.15,6.48-16,16.29-16,9.49,0,16.25,6.51,16.25,16S245.47,177,236,177C226.17,177,219.69,170.17,219.69,161.08ZM236,170.57c5,0,9-3.9,9-9.49s-3.94-9.55-9-9.55c-5.43,0-9.06,4.16-9.06,9.55s3.72,9.49,9.06,9.49Z"/><path class="cls-1" d="M277.24,145.08c6.79,0,11.38,3.9,11.38,13.21v18.27h-7.1V160.12c0-6.54-2.45-8.59-6.74-8.59-4.8,0-8,3.35-8,9.43v15.57h-7.1v-31h7.1v4.25h.09a13.55,13.55,0,0,1,10.39-4.71Z"/><path class="cls-2" d="M196,28.48a56.59,56.59,0,1,0-52,95.31v-8.23a48.37,48.37,0,0,1-22.33-12.73c-.41-.41-.81-.83-1.21-1.25h7.82V99h-10a50.89,50.89,0,0,1-3.75-5.32h13.78l-.17-2.54h-15a49,49,0,0,1-2.41-5.31H121.7l-.47-2.54H109.75A47,47,0,0,1,108.37,78h17l-.82-2.54H107.94a46.73,46.73,0,0,1-.47-5.32h10.1l-1-2.54h-9.15a48.92,48.92,0,0,1,.54-6.44h11.6l-1.17-2.54h-10a48.59,48.59,0,0,1,95.15,0h-10l-1.17,2.54H204a48.92,48.92,0,0,1,.54,6.44h-9.15l-1,2.54h10.1a46.73,46.73,0,0,1-.47,5.32H187.45L186.63,78h17a47,47,0,0,1-1.38,5.31H190.78l-.47,2.54h11.06A49,49,0,0,1,199,91.18H183.91l-.17,2.54h13.78A50.89,50.89,0,0,1,193.77,99h-10v2.54h7.82c-.4.42-.8.84-1.21,1.25A48.34,48.34,0,0,1,160,116.89V101.58h16v-4c0-32.45,14.69-43.27,17.89-45.24a40.42,40.42,0,0,0-3.62-7.16c-3.32,2-20.93,13.93-22.21,48.39h-8V32.47l-8,8V93.57h-8c-1.28-34.46-18.89-46.43-22.21-48.39a40.42,40.42,0,0,0-3.62,7.16c3.2,2,17.89,12.79,17.89,45.24v4H152v21.83h0v1.52c1.32.09,2.66.14,4,.14a56.58,56.58,0,0,0,40-96.59Z"/></svg>